<svg xmlns="http://www.w3.org/2000/svg" viewBox="0 0 16 16" width="16" height="16">
  <path fill="white" d="M6.784 1.303c3.744 0 6.781 2.997 6.781 6.701q0 0.826 -0.198 1.59h-3.204q0.354 -0.733 0.362 -1.59c0 -2.043 -1.673 -3.699 -3.744 -3.699 -2.047 0 -3.749 1.706 -3.749 3.699 0 2.038 1.702 3.695 3.749 3.695h5.650 2.046c0.829 0 1.503 0.673 1.503 1.496 0 0.829 -0.674 1.503 -1.503 1.503h-7.698c-3.744 0 -6.781 -3.036 -6.781 -6.78 0 -3.707 3.037 -6.705 6.781 -6.705zm-1.606 6.705c0 0.562 0.302 1.077 0.804 1.355 0.488 0.288 1.095 0.288 1.594 0 0.49 -0.281 0.793 -0.796 0.793 -1.355 0 -0.568 -0.302 -1.083 -0.793 -1.363 -0.496 -0.281 -1.103 -0.281 -1.594 0 -0.502 0.281 -0.804 0.796 -0.804 1.363z"/>
</svg>
